# xmcd
#
# Track frame offsets: 
#        150
#        23512
#        49378
#        64423
#        91340
#        107885
#        123297
#        151744
#        165574
#        192277
#        207000
#        221372
#        247132
#
# Disc length: 3606 seconds
#
# Revision: 0
# Processed by: cddbd v1.4PL0 Copyright (c) Steve Scherf et al.
# Submitted via: ExactAudioCopy v0.90b4
#
DISCID=af0e140d
DTITLE=Intersection - Meet Me At The Corner
DYEAR=1999
DGENRE=Blues
TTITLE0=Meet Me At The Corner
TTITLE1=Snow White Pain
TTITLE2=We Got A Thing Goin' On
TTITLE3=Sure Enough To Find
TTITLE4=Times Gone By
TTITLE5=Bad Medicine
TTITLE6=Change
TTITLE7=Never Gonna Be Like Before
TTITLE8=All Alone
TTITLE9=Man On Fire
TTITLE10=Funk'n A
TTITLE11=What I Say
TTITLE12=The Grand Emir
EXTD=
EXTT0=
EXTT1=
EXTT2=
EXTT3=
EXTT4=
EXTT5=
EXTT6=
EXTT7=
EXTT8=
EXTT9=
EXTT10=
EXTT11=
EXTT12=
PLAYORDER=
